<?xml version="1.0" encoding="utf-8"?>
<!-- Generator: Adobe Illustrator 23.0.6, SVG Export Plug-In . SVG Version: 6.00 Build 0)  -->
<svg version="1.1" id="Layer_1" xmlns="http://www.w3.org/2000/svg" xmlns:xlink="http://www.w3.org/1999/xlink" x="0px" y="0px"
	 viewBox="0 0 1000 1000" style="enable-background:new 0 0 1000 1000;" xml:space="preserve">
<style type="text/css">
	.st0{fill:#FFFFFF;}
</style>
<path class="st0" d="M507.1,956.4C254,959,46.9,758.1,44.4,507.7C42,254.6,242.9,47.6,493.3,45.3c253.1-2.4,460,198.7,462.3,449.1
	C957.9,747.1,757.1,953.9,507.1,956.4z M697.9,477.5c-10.8,10.1-21,20-31.7,29.3c-5.3,4.6-7.3,9.5-7.2,16.6
	c0.3,63.9,0,127.9,0.4,191.8c0.1,8.6-2.7,15-7.8,21.2c-9.2,11.2-41.6,15.2-56.3,9.9c-13.3-4.9-19.6-14.6-19.6-30.6
	c0-141.5,0-283.1,0-424.6c0-2,0-3.9,0-5.9c0-6.9,3.5-11.2,10.3-11.9c6.2-0.7,10.8,4.5,11.2,11.9c0.1,2.2,0,4.5,0,6.7
	c0,8.4,0,284.2,0,413.7c0,3.6,0,7.3,0.2,10.9c0.5,8.6,22.6,12.8,30.8,10.2c7.1-2.2,8.7-7.3,8.7-14.3c-0.2-65,0-130.1-0.2-195.1
	c0-8.3,2.2-14.9,8.5-20.7c75-70.1,149.8-140.5,224.7-210.6c3.7-3.5,8.2-6.2,13.6-10.2c-89.8-141.7-219.1-218.6-387-217.2
	C334.2,59.6,208.6,135.1,121.1,271c3.2,5.5,5.8,9.1,7.4,13.1C179.7,407,230.9,530,282,653c5.7,13.8,11.6,27.5,18,42.6
	c1.6-3.6,2.5-5.6,3.3-7.6C358,554.5,412.8,421,467.5,287.5c5.3-12.9,9.9-16.2,19.9-14.1c7.1,1.5,9.3,6.1,9.3,19.8
	c0,135.4,0,270.8,0,406.2c0,3.8,0,7.7,0,11.9c9.8,0,18.9,0,28.5,0c0-4.5,0-8.4,0-12.2c0-130.7,2.3-261.5,0.1-392.2
	c0-2.5-0.1-4.9-0.1-7.4c0-2.8,0-5.5,0-8.3c-0.1-6-0.2-7.1,0.4-9.2c1.3-5,3.8-9.5,10.2-8.9c6,0.5,9.9,3.6,10.6,9.8
	c0.2,2.2,0.1,4.5,0.1,6.7c0,142.4,0,284.7,0,427.1c0,2,0,3.9,0,5.9c-0.1,6.5-3.9,9.9-10,10c-15.3,0.3-30.7,0.4-46,0
	c-14.3-0.4-16-2.4-16-16.9c0-124.2,0-248.4,0-372.7c0-3.1,0-6.2,0-9.3c-2.6,2.1-3.7,4.3-4.6,6.6c-33.8,82.5-67.5,165-101.3,247.5
	c-18.4,44.9-36.9,89.7-55,134.6c-3.2,7.8-8.2,10.6-16.2,9.7c-7.4-0.9-8.7-7-11-12.3c-49.6-118.8-99.2-237.6-148.8-356.3
	c-2.8-6.8-5.8-13.5-8.7-20.3c-0.5,0.1-1,0.2-1.5,0.3c0,2.9,0,5.9,0,8.8c0,121.2,0,242.3,0,363.5c0,3.3,0.9,7.6-0.8,9.8
	c-4.7,6.4-1,10.8,2.2,15.6c86.6,129.9,209.4,197,363.9,202.6c110.5,4,208.6-34.3,294.3-104.2c37.8-30.9,68-68.3,93.4-110.1
	C819.4,645.5,758.8,561.7,697.9,477.5z M892,295c-59.3,55.7-118.5,111.4-177.9,167.3c59.5,82.3,118.4,163.8,177.5,245.5
	C959.9,606.7,960,391,892,295z M105.5,305c-32.1,61.7-48,127.3-48.4,196.4c-0.3,62.8,28.2,176.5,48.4,195.3
	C105.5,566,105.5,435.5,105.5,305z"/>
<path class="st0" d="M597.4,670.7c0,0-3.1,62.5-13.1,60.3c-7.1-1.5-9.3-6.1-9.3-19.8c0-135.4,0-270.8,0-406.2c0-3.8,0-7.7,0-11.9
	c-9.8,0-18.9,0-28.5,0c0,4.5,0,8.4,0,12.2c0,130.7-2.3,261.5-0.1,392.2c0,2.5,0.1,4.9,0.1,7.4c0,2.8,0,5.5,0,8.3
	c0.1,6,0.2,7.1-0.4,9.2c-1.3,5-3.8,9.5-10.2,8.9c-6-0.5-9.9-3.6-10.6-9.8c-0.2-2.2-0.1-4.5-0.1-6.7c0-142.4,0-284.7,0-427.1
	c0-2,0-3.9,0-5.9c0.1-6.5,3.9-9.9,10-10c15.3-0.3,30.7-0.4,46,0c14.3,0.4,16,2.4,16,16.9c0,124.2,0,248.4,0,372.7
	C597.4,664.5,597.4,667.6,597.4,670.7"/>
</svg>
